%TF.GenerationSoftware,KiCad,Pcbnew,10.0.3*%
%TF.CreationDate,2026-05-18T20:34:22-05:00*%
%TF.ProjectId,Ansh_Pathfinder,416e7368-5f50-4617-9468-66696e646572,rev?*%
%TF.SameCoordinates,Original*%
%TF.FileFunction,Legend,Top*%
%TF.FilePolarity,Positive*%
%FSLAX46Y46*%
G04 Gerber Fmt 4.6, Leading zero omitted, Abs format (unit mm)*
G04 Created by KiCad (PCBNEW 10.0.3) date 2026-05-18 20:34:22*
%MOMM*%
%LPD*%
G01*
G04 APERTURE LIST*
%ADD10C,0.150000*%
%ADD11C,0.101600*%
%ADD12C,0.120000*%
%ADD13C,0.127000*%
%ADD14C,0.200000*%
%ADD15C,0.100000*%
%ADD16C,0.504000*%
G04 APERTURE END LIST*
D10*
X143103333Y-107414819D02*
X142770000Y-106938628D01*
X142531905Y-107414819D02*
X142531905Y-106414819D01*
X142531905Y-106414819D02*
X142912857Y-106414819D01*
X142912857Y-106414819D02*
X143008095Y-106462438D01*
X143008095Y-106462438D02*
X143055714Y-106510057D01*
X143055714Y-106510057D02*
X143103333Y-106605295D01*
X143103333Y-106605295D02*
X143103333Y-106748152D01*
X143103333Y-106748152D02*
X143055714Y-106843390D01*
X143055714Y-106843390D02*
X143008095Y-106891009D01*
X143008095Y-106891009D02*
X142912857Y-106938628D01*
X142912857Y-106938628D02*
X142531905Y-106938628D01*
X143484286Y-106510057D02*
X143531905Y-106462438D01*
X143531905Y-106462438D02*
X143627143Y-106414819D01*
X143627143Y-106414819D02*
X143865238Y-106414819D01*
X143865238Y-106414819D02*
X143960476Y-106462438D01*
X143960476Y-106462438D02*
X144008095Y-106510057D01*
X144008095Y-106510057D02*
X144055714Y-106605295D01*
X144055714Y-106605295D02*
X144055714Y-106700533D01*
X144055714Y-106700533D02*
X144008095Y-106843390D01*
X144008095Y-106843390D02*
X143436667Y-107414819D01*
X143436667Y-107414819D02*
X144055714Y-107414819D01*
X160976667Y-57573200D02*
X161119524Y-57620819D01*
X161119524Y-57620819D02*
X161357619Y-57620819D01*
X161357619Y-57620819D02*
X161452857Y-57573200D01*
X161452857Y-57573200D02*
X161500476Y-57525580D01*
X161500476Y-57525580D02*
X161548095Y-57430342D01*
X161548095Y-57430342D02*
X161548095Y-57335104D01*
X161548095Y-57335104D02*
X161500476Y-57239866D01*
X161500476Y-57239866D02*
X161452857Y-57192247D01*
X161452857Y-57192247D02*
X161357619Y-57144628D01*
X161357619Y-57144628D02*
X161167143Y-57097009D01*
X161167143Y-57097009D02*
X161071905Y-57049390D01*
X161071905Y-57049390D02*
X161024286Y-57001771D01*
X161024286Y-57001771D02*
X160976667Y-56906533D01*
X160976667Y-56906533D02*
X160976667Y-56811295D01*
X160976667Y-56811295D02*
X161024286Y-56716057D01*
X161024286Y-56716057D02*
X161071905Y-56668438D01*
X161071905Y-56668438D02*
X161167143Y-56620819D01*
X161167143Y-56620819D02*
X161405238Y-56620819D01*
X161405238Y-56620819D02*
X161548095Y-56668438D01*
X161881429Y-56620819D02*
X162119524Y-57620819D01*
X162119524Y-57620819D02*
X162310000Y-56906533D01*
X162310000Y-56906533D02*
X162500476Y-57620819D01*
X162500476Y-57620819D02*
X162738572Y-56620819D01*
X163643333Y-57620819D02*
X163071905Y-57620819D01*
X163357619Y-57620819D02*
X163357619Y-56620819D01*
X163357619Y-56620819D02*
X163262381Y-56763676D01*
X163262381Y-56763676D02*
X163167143Y-56858914D01*
X163167143Y-56858914D02*
X163071905Y-56906533D01*
X161949524Y-77654295D02*
X161949524Y-76854295D01*
X161949524Y-76854295D02*
X162140000Y-76854295D01*
X162140000Y-76854295D02*
X162254286Y-76892390D01*
X162254286Y-76892390D02*
X162330476Y-76968580D01*
X162330476Y-76968580D02*
X162368571Y-77044771D01*
X162368571Y-77044771D02*
X162406667Y-77197152D01*
X162406667Y-77197152D02*
X162406667Y-77311438D01*
X162406667Y-77311438D02*
X162368571Y-77463819D01*
X162368571Y-77463819D02*
X162330476Y-77540009D01*
X162330476Y-77540009D02*
X162254286Y-77616200D01*
X162254286Y-77616200D02*
X162140000Y-77654295D01*
X162140000Y-77654295D02*
X161949524Y-77654295D01*
X163168571Y-77654295D02*
X162711428Y-77654295D01*
X162940000Y-77654295D02*
X162940000Y-76854295D01*
X162940000Y-76854295D02*
X162863809Y-76968580D01*
X162863809Y-76968580D02*
X162787619Y-77044771D01*
X162787619Y-77044771D02*
X162711428Y-77082866D01*
X116476667Y-101573200D02*
X116619524Y-101620819D01*
X116619524Y-101620819D02*
X116857619Y-101620819D01*
X116857619Y-101620819D02*
X116952857Y-101573200D01*
X116952857Y-101573200D02*
X117000476Y-101525580D01*
X117000476Y-101525580D02*
X117048095Y-101430342D01*
X117048095Y-101430342D02*
X117048095Y-101335104D01*
X117048095Y-101335104D02*
X117000476Y-101239866D01*
X117000476Y-101239866D02*
X116952857Y-101192247D01*
X116952857Y-101192247D02*
X116857619Y-101144628D01*
X116857619Y-101144628D02*
X116667143Y-101097009D01*
X116667143Y-101097009D02*
X116571905Y-101049390D01*
X116571905Y-101049390D02*
X116524286Y-101001771D01*
X116524286Y-101001771D02*
X116476667Y-100906533D01*
X116476667Y-100906533D02*
X116476667Y-100811295D01*
X116476667Y-100811295D02*
X116524286Y-100716057D01*
X116524286Y-100716057D02*
X116571905Y-100668438D01*
X116571905Y-100668438D02*
X116667143Y-100620819D01*
X116667143Y-100620819D02*
X116905238Y-100620819D01*
X116905238Y-100620819D02*
X117048095Y-100668438D01*
X117381429Y-100620819D02*
X117619524Y-101620819D01*
X117619524Y-101620819D02*
X117810000Y-100906533D01*
X117810000Y-100906533D02*
X118000476Y-101620819D01*
X118000476Y-101620819D02*
X118238572Y-100620819D01*
X118571905Y-100716057D02*
X118619524Y-100668438D01*
X118619524Y-100668438D02*
X118714762Y-100620819D01*
X118714762Y-100620819D02*
X118952857Y-100620819D01*
X118952857Y-100620819D02*
X119048095Y-100668438D01*
X119048095Y-100668438D02*
X119095714Y-100716057D01*
X119095714Y-100716057D02*
X119143333Y-100811295D01*
X119143333Y-100811295D02*
X119143333Y-100906533D01*
X119143333Y-100906533D02*
X119095714Y-101049390D01*
X119095714Y-101049390D02*
X118524286Y-101620819D01*
X118524286Y-101620819D02*
X119143333Y-101620819D01*
D11*
X160622690Y-97903479D02*
X160622690Y-98417526D01*
X160622690Y-98417526D02*
X160652928Y-98478002D01*
X160652928Y-98478002D02*
X160683166Y-98508241D01*
X160683166Y-98508241D02*
X160743642Y-98538479D01*
X160743642Y-98538479D02*
X160864595Y-98538479D01*
X160864595Y-98538479D02*
X160925071Y-98508241D01*
X160925071Y-98508241D02*
X160955309Y-98478002D01*
X160955309Y-98478002D02*
X160985547Y-98417526D01*
X160985547Y-98417526D02*
X160985547Y-97903479D01*
X161620547Y-98538479D02*
X161257690Y-98538479D01*
X161439118Y-98538479D02*
X161439118Y-97903479D01*
X161439118Y-97903479D02*
X161378642Y-97994193D01*
X161378642Y-97994193D02*
X161318166Y-98054669D01*
X161318166Y-98054669D02*
X161257690Y-98084907D01*
D10*
X190219524Y-105154295D02*
X190219524Y-104354295D01*
X190219524Y-104354295D02*
X190410000Y-104354295D01*
X190410000Y-104354295D02*
X190524286Y-104392390D01*
X190524286Y-104392390D02*
X190600476Y-104468580D01*
X190600476Y-104468580D02*
X190638571Y-104544771D01*
X190638571Y-104544771D02*
X190676667Y-104697152D01*
X190676667Y-104697152D02*
X190676667Y-104811438D01*
X190676667Y-104811438D02*
X190638571Y-104963819D01*
X190638571Y-104963819D02*
X190600476Y-105040009D01*
X190600476Y-105040009D02*
X190524286Y-105116200D01*
X190524286Y-105116200D02*
X190410000Y-105154295D01*
X190410000Y-105154295D02*
X190219524Y-105154295D01*
X190943333Y-104354295D02*
X191438571Y-104354295D01*
X191438571Y-104354295D02*
X191171905Y-104659057D01*
X191171905Y-104659057D02*
X191286190Y-104659057D01*
X191286190Y-104659057D02*
X191362381Y-104697152D01*
X191362381Y-104697152D02*
X191400476Y-104735247D01*
X191400476Y-104735247D02*
X191438571Y-104811438D01*
X191438571Y-104811438D02*
X191438571Y-105001914D01*
X191438571Y-105001914D02*
X191400476Y-105078104D01*
X191400476Y-105078104D02*
X191362381Y-105116200D01*
X191362381Y-105116200D02*
X191286190Y-105154295D01*
X191286190Y-105154295D02*
X191057619Y-105154295D01*
X191057619Y-105154295D02*
X190981428Y-105116200D01*
X190981428Y-105116200D02*
X190943333Y-105078104D01*
X162373333Y-89534819D02*
X162040000Y-89058628D01*
X161801905Y-89534819D02*
X161801905Y-88534819D01*
X161801905Y-88534819D02*
X162182857Y-88534819D01*
X162182857Y-88534819D02*
X162278095Y-88582438D01*
X162278095Y-88582438D02*
X162325714Y-88630057D01*
X162325714Y-88630057D02*
X162373333Y-88725295D01*
X162373333Y-88725295D02*
X162373333Y-88868152D01*
X162373333Y-88868152D02*
X162325714Y-88963390D01*
X162325714Y-88963390D02*
X162278095Y-89011009D01*
X162278095Y-89011009D02*
X162182857Y-89058628D01*
X162182857Y-89058628D02*
X161801905Y-89058628D01*
X163325714Y-89534819D02*
X162754286Y-89534819D01*
X163040000Y-89534819D02*
X163040000Y-88534819D01*
X163040000Y-88534819D02*
X162944762Y-88677676D01*
X162944762Y-88677676D02*
X162849524Y-88772914D01*
X162849524Y-88772914D02*
X162754286Y-88820533D01*
X160873333Y-122034819D02*
X160540000Y-121558628D01*
X160301905Y-122034819D02*
X160301905Y-121034819D01*
X160301905Y-121034819D02*
X160682857Y-121034819D01*
X160682857Y-121034819D02*
X160778095Y-121082438D01*
X160778095Y-121082438D02*
X160825714Y-121130057D01*
X160825714Y-121130057D02*
X160873333Y-121225295D01*
X160873333Y-121225295D02*
X160873333Y-121368152D01*
X160873333Y-121368152D02*
X160825714Y-121463390D01*
X160825714Y-121463390D02*
X160778095Y-121511009D01*
X160778095Y-121511009D02*
X160682857Y-121558628D01*
X160682857Y-121558628D02*
X160301905Y-121558628D01*
X161730476Y-121368152D02*
X161730476Y-122034819D01*
X161492381Y-120987200D02*
X161254286Y-121701485D01*
X161254286Y-121701485D02*
X161873333Y-121701485D01*
X205476667Y-100073200D02*
X205619524Y-100120819D01*
X205619524Y-100120819D02*
X205857619Y-100120819D01*
X205857619Y-100120819D02*
X205952857Y-100073200D01*
X205952857Y-100073200D02*
X206000476Y-100025580D01*
X206000476Y-100025580D02*
X206048095Y-99930342D01*
X206048095Y-99930342D02*
X206048095Y-99835104D01*
X206048095Y-99835104D02*
X206000476Y-99739866D01*
X206000476Y-99739866D02*
X205952857Y-99692247D01*
X205952857Y-99692247D02*
X205857619Y-99644628D01*
X205857619Y-99644628D02*
X205667143Y-99597009D01*
X205667143Y-99597009D02*
X205571905Y-99549390D01*
X205571905Y-99549390D02*
X205524286Y-99501771D01*
X205524286Y-99501771D02*
X205476667Y-99406533D01*
X205476667Y-99406533D02*
X205476667Y-99311295D01*
X205476667Y-99311295D02*
X205524286Y-99216057D01*
X205524286Y-99216057D02*
X205571905Y-99168438D01*
X205571905Y-99168438D02*
X205667143Y-99120819D01*
X205667143Y-99120819D02*
X205905238Y-99120819D01*
X205905238Y-99120819D02*
X206048095Y-99168438D01*
X206381429Y-99120819D02*
X206619524Y-100120819D01*
X206619524Y-100120819D02*
X206810000Y-99406533D01*
X206810000Y-99406533D02*
X207000476Y-100120819D01*
X207000476Y-100120819D02*
X207238572Y-99120819D01*
X208048095Y-99454152D02*
X208048095Y-100120819D01*
X207810000Y-99073200D02*
X207571905Y-99787485D01*
X207571905Y-99787485D02*
X208190952Y-99787485D01*
X134179524Y-105654295D02*
X134179524Y-104854295D01*
X134179524Y-104854295D02*
X134370000Y-104854295D01*
X134370000Y-104854295D02*
X134484286Y-104892390D01*
X134484286Y-104892390D02*
X134560476Y-104968580D01*
X134560476Y-104968580D02*
X134598571Y-105044771D01*
X134598571Y-105044771D02*
X134636667Y-105197152D01*
X134636667Y-105197152D02*
X134636667Y-105311438D01*
X134636667Y-105311438D02*
X134598571Y-105463819D01*
X134598571Y-105463819D02*
X134560476Y-105540009D01*
X134560476Y-105540009D02*
X134484286Y-105616200D01*
X134484286Y-105616200D02*
X134370000Y-105654295D01*
X134370000Y-105654295D02*
X134179524Y-105654295D01*
X134941428Y-104930485D02*
X134979524Y-104892390D01*
X134979524Y-104892390D02*
X135055714Y-104854295D01*
X135055714Y-104854295D02*
X135246190Y-104854295D01*
X135246190Y-104854295D02*
X135322381Y-104892390D01*
X135322381Y-104892390D02*
X135360476Y-104930485D01*
X135360476Y-104930485D02*
X135398571Y-105006676D01*
X135398571Y-105006676D02*
X135398571Y-105082866D01*
X135398571Y-105082866D02*
X135360476Y-105197152D01*
X135360476Y-105197152D02*
X134903333Y-105654295D01*
X134903333Y-105654295D02*
X135398571Y-105654295D01*
X160719524Y-128154295D02*
X160719524Y-127354295D01*
X160719524Y-127354295D02*
X160910000Y-127354295D01*
X160910000Y-127354295D02*
X161024286Y-127392390D01*
X161024286Y-127392390D02*
X161100476Y-127468580D01*
X161100476Y-127468580D02*
X161138571Y-127544771D01*
X161138571Y-127544771D02*
X161176667Y-127697152D01*
X161176667Y-127697152D02*
X161176667Y-127811438D01*
X161176667Y-127811438D02*
X161138571Y-127963819D01*
X161138571Y-127963819D02*
X161100476Y-128040009D01*
X161100476Y-128040009D02*
X161024286Y-128116200D01*
X161024286Y-128116200D02*
X160910000Y-128154295D01*
X160910000Y-128154295D02*
X160719524Y-128154295D01*
X161862381Y-127620961D02*
X161862381Y-128154295D01*
X161671905Y-127316200D02*
X161481428Y-127887628D01*
X161481428Y-127887628D02*
X161976667Y-127887628D01*
X180833333Y-107034819D02*
X180500000Y-106558628D01*
X180261905Y-107034819D02*
X180261905Y-106034819D01*
X180261905Y-106034819D02*
X180642857Y-106034819D01*
X180642857Y-106034819D02*
X180738095Y-106082438D01*
X180738095Y-106082438D02*
X180785714Y-106130057D01*
X180785714Y-106130057D02*
X180833333Y-106225295D01*
X180833333Y-106225295D02*
X180833333Y-106368152D01*
X180833333Y-106368152D02*
X180785714Y-106463390D01*
X180785714Y-106463390D02*
X180738095Y-106511009D01*
X180738095Y-106511009D02*
X180642857Y-106558628D01*
X180642857Y-106558628D02*
X180261905Y-106558628D01*
X181166667Y-106034819D02*
X181785714Y-106034819D01*
X181785714Y-106034819D02*
X181452381Y-106415771D01*
X181452381Y-106415771D02*
X181595238Y-106415771D01*
X181595238Y-106415771D02*
X181690476Y-106463390D01*
X181690476Y-106463390D02*
X181738095Y-106511009D01*
X181738095Y-106511009D02*
X181785714Y-106606247D01*
X181785714Y-106606247D02*
X181785714Y-106844342D01*
X181785714Y-106844342D02*
X181738095Y-106939580D01*
X181738095Y-106939580D02*
X181690476Y-106987200D01*
X181690476Y-106987200D02*
X181595238Y-107034819D01*
X181595238Y-107034819D02*
X181309524Y-107034819D01*
X181309524Y-107034819D02*
X181214286Y-106987200D01*
X181214286Y-106987200D02*
X181166667Y-106939580D01*
X159976667Y-141073200D02*
X160119524Y-141120819D01*
X160119524Y-141120819D02*
X160357619Y-141120819D01*
X160357619Y-141120819D02*
X160452857Y-141073200D01*
X160452857Y-141073200D02*
X160500476Y-141025580D01*
X160500476Y-141025580D02*
X160548095Y-140930342D01*
X160548095Y-140930342D02*
X160548095Y-140835104D01*
X160548095Y-140835104D02*
X160500476Y-140739866D01*
X160500476Y-140739866D02*
X160452857Y-140692247D01*
X160452857Y-140692247D02*
X160357619Y-140644628D01*
X160357619Y-140644628D02*
X160167143Y-140597009D01*
X160167143Y-140597009D02*
X160071905Y-140549390D01*
X160071905Y-140549390D02*
X160024286Y-140501771D01*
X160024286Y-140501771D02*
X159976667Y-140406533D01*
X159976667Y-140406533D02*
X159976667Y-140311295D01*
X159976667Y-140311295D02*
X160024286Y-140216057D01*
X160024286Y-140216057D02*
X160071905Y-140168438D01*
X160071905Y-140168438D02*
X160167143Y-140120819D01*
X160167143Y-140120819D02*
X160405238Y-140120819D01*
X160405238Y-140120819D02*
X160548095Y-140168438D01*
X160881429Y-140120819D02*
X161119524Y-141120819D01*
X161119524Y-141120819D02*
X161310000Y-140406533D01*
X161310000Y-140406533D02*
X161500476Y-141120819D01*
X161500476Y-141120819D02*
X161738572Y-140120819D01*
X162024286Y-140120819D02*
X162643333Y-140120819D01*
X162643333Y-140120819D02*
X162310000Y-140501771D01*
X162310000Y-140501771D02*
X162452857Y-140501771D01*
X162452857Y-140501771D02*
X162548095Y-140549390D01*
X162548095Y-140549390D02*
X162595714Y-140597009D01*
X162595714Y-140597009D02*
X162643333Y-140692247D01*
X162643333Y-140692247D02*
X162643333Y-140930342D01*
X162643333Y-140930342D02*
X162595714Y-141025580D01*
X162595714Y-141025580D02*
X162548095Y-141073200D01*
X162548095Y-141073200D02*
X162452857Y-141120819D01*
X162452857Y-141120819D02*
X162167143Y-141120819D01*
X162167143Y-141120819D02*
X162071905Y-141073200D01*
X162071905Y-141073200D02*
X162024286Y-141025580D01*
%TO.C,R2*%
D12*
X141390000Y-108040000D02*
X145230000Y-108040000D01*
X141390000Y-109880000D02*
X145230000Y-109880000D01*
%TO.C,SW1*%
X155325000Y-58055000D02*
X169295000Y-58055000D01*
X155325000Y-72025000D02*
X155325000Y-58055000D01*
X169295000Y-58055000D02*
X169295000Y-72025000D01*
X169295000Y-72025000D02*
X155325000Y-72025000D01*
%TO.C,D1*%
D13*
X160000000Y-79434000D02*
X160000000Y-82566000D01*
X160000000Y-79434000D02*
G75*
G02*
X160000000Y-82566000I2506124J-1566000D01*
G01*
D14*
X159400000Y-81000000D02*
G75*
G02*
X159200000Y-81000000I-100000J0D01*
G01*
X159200000Y-81000000D02*
G75*
G02*
X159400000Y-81000000I100000J0D01*
G01*
%TO.C,SW2*%
D12*
X110825000Y-102055000D02*
X124795000Y-102055000D01*
X110825000Y-116025000D02*
X110825000Y-102055000D01*
X124795000Y-102055000D02*
X124795000Y-116025000D01*
X124795000Y-116025000D02*
X110825000Y-116025000D01*
%TO.C,U1*%
D13*
X150817500Y-101515000D02*
X150817500Y-115485000D01*
X152722500Y-99610000D02*
X169867500Y-99610000D01*
X152722500Y-117390000D02*
X169867500Y-117390000D01*
X171772500Y-104005000D02*
X172682772Y-104008728D01*
D15*
X171772500Y-115485000D02*
X171772500Y-101515000D01*
D13*
X171772500Y-115485000D02*
X171772500Y-101515000D01*
X172682500Y-113004000D02*
X171772500Y-113004000D01*
X173182500Y-104508728D02*
X173182500Y-112504000D01*
X150817500Y-101515000D02*
G75*
G02*
X152722500Y-99610000I1905001J-1D01*
G01*
X152722500Y-117390000D02*
G75*
G02*
X150817500Y-115485000I1J1905001D01*
G01*
X169867500Y-99610000D02*
G75*
G02*
X171772500Y-101515000I0J-1905000D01*
G01*
X171772500Y-115485000D02*
G75*
G02*
X169867500Y-117390000I-1905000J0D01*
G01*
X172682772Y-104008728D02*
G75*
G02*
X173182472Y-104508728I-272J-499972D01*
G01*
X173182500Y-112504000D02*
G75*
G02*
X172682500Y-113004000I-500000J0D01*
G01*
D16*
X170903500Y-100693000D02*
G75*
G02*
X170399500Y-100693000I-252000J0D01*
G01*
X170399500Y-100693000D02*
G75*
G02*
X170903500Y-100693000I252000J0D01*
G01*
X171783500Y-99550000D02*
G75*
G02*
X171279500Y-99550000I-252000J0D01*
G01*
X171279500Y-99550000D02*
G75*
G02*
X171783500Y-99550000I252000J0D01*
G01*
%TO.C,D3*%
D13*
X188270000Y-106934000D02*
X188270000Y-110066000D01*
X188270000Y-106934000D02*
G75*
G02*
X188270000Y-110066000I2506124J-1566000D01*
G01*
D14*
X187670000Y-108500000D02*
G75*
G02*
X187470000Y-108500000I-100000J0D01*
G01*
X187470000Y-108500000D02*
G75*
G02*
X187670000Y-108500000I100000J0D01*
G01*
%TO.C,R1*%
D12*
X160620000Y-90080000D02*
X164460000Y-90080000D01*
X160620000Y-91920000D02*
X164460000Y-91920000D01*
%TO.C,R4*%
X159120000Y-122580000D02*
X162960000Y-122580000D01*
X159120000Y-124420000D02*
X162960000Y-124420000D01*
%TO.C,SW4*%
X199825000Y-100555000D02*
X213795000Y-100555000D01*
X199825000Y-114525000D02*
X199825000Y-100555000D01*
X213795000Y-100555000D02*
X213795000Y-114525000D01*
X213795000Y-114525000D02*
X199825000Y-114525000D01*
%TO.C,D2*%
D13*
X132230000Y-107434000D02*
X132230000Y-110566000D01*
X132230000Y-107434000D02*
G75*
G02*
X132230000Y-110566000I2506124J-1566000D01*
G01*
D14*
X131630000Y-109000000D02*
G75*
G02*
X131430000Y-109000000I-100000J0D01*
G01*
X131430000Y-109000000D02*
G75*
G02*
X131630000Y-109000000I100000J0D01*
G01*
%TO.C,D4*%
D13*
X158770000Y-129934000D02*
X158770000Y-133066000D01*
X158770000Y-129934000D02*
G75*
G02*
X158770000Y-133066000I2506124J-1566000D01*
G01*
D14*
X158170000Y-131500000D02*
G75*
G02*
X157970000Y-131500000I-100000J0D01*
G01*
X157970000Y-131500000D02*
G75*
G02*
X158170000Y-131500000I100000J0D01*
G01*
%TO.C,R3*%
D12*
X179080000Y-107580000D02*
X182920000Y-107580000D01*
X179080000Y-109420000D02*
X182920000Y-109420000D01*
%TO.C,SW3*%
X154325000Y-141555000D02*
X168295000Y-141555000D01*
X154325000Y-155525000D02*
X154325000Y-141555000D01*
X168295000Y-141555000D02*
X168295000Y-155525000D01*
X168295000Y-155525000D02*
X154325000Y-155525000D01*
%TD*%
M02*
