%TF.GenerationSoftware,KiCad,Pcbnew,10.0.3*%
%TF.CreationDate,2026-05-18T20:34:22-05:00*%
%TF.ProjectId,Ansh_Pathfinder,416e7368-5f50-4617-9468-66696e646572,rev?*%
%TF.SameCoordinates,Original*%
%TF.FileFunction,Copper,L2,Bot*%
%TF.FilePolarity,Positive*%
%FSLAX46Y46*%
G04 Gerber Fmt 4.6, Leading zero omitted, Abs format (unit mm)*
G04 Created by KiCad (PCBNEW 10.0.3) date 2026-05-18 20:34:22*
%MOMM*%
%LPD*%
G01*
G04 APERTURE LIST*
%TA.AperFunction,ComponentPad*%
%ADD10C,1.400000*%
%TD*%
%TA.AperFunction,ComponentPad*%
%ADD11C,2.200000*%
%TD*%
%TA.AperFunction,ComponentPad*%
%ADD12C,1.815000*%
%TD*%
%TA.AperFunction,ComponentPad*%
%ADD13R,1.815000X1.815000*%
%TD*%
%TA.AperFunction,ComponentPad*%
%ADD14C,1.524000*%
%TD*%
%TA.AperFunction,Conductor*%
%ADD15C,0.200000*%
%TD*%
G04 APERTURE END LIST*
D10*
%TO.P,R2,1*%
%TO.N,Net-(D2-PadA)*%
X140770000Y-108960000D03*
%TO.P,R2,2*%
%TO.N,LED2*%
X145850000Y-108960000D03*
%TD*%
D11*
%TO.P,SW1,1,1_1*%
%TO.N,Button1*%
X164850000Y-59960000D03*
%TO.P,SW1,2,2_2*%
%TO.N,GND*%
X158500000Y-62500000D03*
%TD*%
D12*
%TO.P,D1,A*%
%TO.N,Net-(D1-PadA)*%
X163770000Y-81000000D03*
D13*
%TO.P,D1,C*%
%TO.N,GND*%
X161230000Y-81000000D03*
%TD*%
D11*
%TO.P,SW2,1,1_1*%
%TO.N,Button2*%
X120350000Y-103960000D03*
%TO.P,SW2,2,2_2*%
%TO.N,GND*%
X114000000Y-106500000D03*
%TD*%
D14*
%TO.P,U1,1,P26_A0_D0_1*%
%TO.N,LED1*%
X168851500Y-100880000D03*
%TO.P,U1,2,P27_A1_D1_2*%
%TO.N,LED2*%
X166311500Y-100880000D03*
%TO.P,U1,3,P28_A2_D2_3*%
%TO.N,LED3*%
X163771500Y-100880000D03*
%TO.P,U1,4,P29_A3_D3_4*%
%TO.N,LED4*%
X161231500Y-100880000D03*
%TO.P,U1,5,P6_SDA_D4_5*%
%TO.N,Button1*%
X158691500Y-100880000D03*
%TO.P,U1,6,P7_SCL_D5_6*%
%TO.N,Button2*%
X156151500Y-100880000D03*
%TO.P,U1,7,P0_D6_TX_7*%
%TO.N,Button3*%
X153611500Y-100880000D03*
%TO.P,U1,8,P1_D7_RX_8*%
%TO.N,unconnected-(U1-P1_D7_RX-Pad8)*%
X153611500Y-116120000D03*
%TO.P,U1,9,P2_D8_SCK_9*%
%TO.N,unconnected-(U1-P2_D8_SCK-Pad9)*%
X156151500Y-116120000D03*
%TO.P,U1,10,P4_D9_MISO_10*%
%TO.N,unconnected-(U1-P4_D9_MISO-Pad10)*%
X158691500Y-116120000D03*
%TO.P,U1,11,P3_D10_MOSI_11*%
%TO.N,Button4*%
X161231500Y-116120000D03*
%TO.P,U1,12,3V3_12*%
%TO.N,unconnected-(U1-3V3-Pad12)*%
X163771500Y-116120000D03*
%TO.P,U1,13,GND_13*%
%TO.N,GND*%
X166311500Y-116120000D03*
%TO.P,U1,14,VBUS_14*%
%TO.N,unconnected-(U1-VBUS-Pad14)*%
X168851500Y-116120000D03*
%TD*%
D12*
%TO.P,D3,A*%
%TO.N,Net-(D3-PadA)*%
X192040000Y-108500000D03*
D13*
%TO.P,D3,C*%
%TO.N,GND*%
X189500000Y-108500000D03*
%TD*%
D10*
%TO.P,R1,1*%
%TO.N,Net-(D1-PadA)*%
X160000000Y-91000000D03*
%TO.P,R1,2*%
%TO.N,LED1*%
X165080000Y-91000000D03*
%TD*%
%TO.P,R4,1*%
%TO.N,Net-(D4-PadA)*%
X158500000Y-123500000D03*
%TO.P,R4,2*%
%TO.N,LED4*%
X163580000Y-123500000D03*
%TD*%
D11*
%TO.P,SW4,1,1_1*%
%TO.N,Button4*%
X209350000Y-102460000D03*
%TO.P,SW4,2,2_2*%
%TO.N,GND*%
X203000000Y-105000000D03*
%TD*%
D12*
%TO.P,D2,A*%
%TO.N,Net-(D2-PadA)*%
X136000000Y-109000000D03*
D13*
%TO.P,D2,C*%
%TO.N,GND*%
X133460000Y-109000000D03*
%TD*%
D12*
%TO.P,D4,A*%
%TO.N,Net-(D4-PadA)*%
X162540000Y-131500000D03*
D13*
%TO.P,D4,C*%
%TO.N,GND*%
X160000000Y-131500000D03*
%TD*%
D10*
%TO.P,R3,1*%
%TO.N,Net-(D3-PadA)*%
X178460000Y-108500000D03*
%TO.P,R3,2*%
%TO.N,LED3*%
X183540000Y-108500000D03*
%TD*%
D11*
%TO.P,SW3,1,1_1*%
%TO.N,Button3*%
X163850000Y-143460000D03*
%TO.P,SW3,2,2_2*%
%TO.N,GND*%
X157500000Y-146000000D03*
%TD*%
%TO.N,GND*%
D15*
X164000000Y-83770000D02*
X164000000Y-99818000D01*
X162709500Y-101319895D02*
X163331605Y-101942000D01*
X163331605Y-99818000D02*
X162709500Y-100440105D01*
X161230000Y-81000000D02*
X164000000Y-83770000D01*
X164000000Y-99818000D02*
X163331605Y-99818000D01*
X163331605Y-101942000D02*
X164000000Y-101942000D01*
X164000000Y-113808500D02*
X166311500Y-116120000D01*
X164000000Y-101942000D02*
X164000000Y-113808500D01*
X162709500Y-100440105D02*
X162709500Y-101319895D01*
%TO.N,LED3*%
X170184000Y-107292500D02*
X163771500Y-100880000D01*
X183540000Y-108500000D02*
X182332500Y-107292500D01*
X182332500Y-107292500D02*
X170184000Y-107292500D01*
%TO.N,LED4*%
X161231500Y-100880000D02*
X161380000Y-100880000D01*
X162293500Y-122213500D02*
X163580000Y-123500000D01*
X161380000Y-100880000D02*
X162293500Y-101793500D01*
X162293500Y-101793500D02*
X162293500Y-122213500D01*
%TO.N,Button3*%
X149000000Y-105491500D02*
X153611500Y-100880000D01*
X163850000Y-143460000D02*
X149000000Y-128610000D01*
X149000000Y-128610000D02*
X149000000Y-105491500D01*
%TO.N,Net-(D3-PadA)*%
X190792500Y-109707500D02*
X179667500Y-109707500D01*
X192040000Y-108500000D02*
X192000000Y-108500000D01*
X179667500Y-109707500D02*
X178460000Y-108500000D01*
X192000000Y-108500000D02*
X190792500Y-109707500D01*
%TD*%
M02*
