M48
; DRILL file KiCad 10.0.3 date 2026-05-18T20:36:28
; FORMAT={-:-/ absolute / metric / decimal}
; #@! TF.CreationDate,2026-05-18T20:36:28-05:00
; #@! TF.GenerationSoftware,Kicad,Pcbnew,10.0.3
; #@! TF.FileFunction,Plated,1,2,PTH
FMAT,2
METRIC
; #@! TA.AperFunction,Plated,PTH,ComponentDrill
T1C0.700
; #@! TA.AperFunction,Plated,PTH,ComponentDrill
T2C0.889
; #@! TA.AperFunction,Plated,PTH,ComponentDrill
T3C1.210
; #@! TA.AperFunction,Plated,PTH,ComponentDrill
T4C1.500
%
G90
G05
T1
X140.77Y-108.96
X145.85Y-108.96
X158.5Y-123.5
X160.0Y-91.0
X163.58Y-123.5
X165.08Y-91.0
X178.46Y-108.5
X183.54Y-108.5
T2
X153.612Y-100.88
X153.612Y-116.12
X156.151Y-100.88
X156.151Y-116.12
X158.691Y-100.88
X158.691Y-116.12
X161.231Y-100.88
X161.231Y-116.12
X163.772Y-100.88
X163.772Y-116.12
X166.311Y-100.88
X166.311Y-116.12
X168.851Y-100.88
X168.851Y-116.12
T3
X133.46Y-109.0
X136.0Y-109.0
X160.0Y-131.5
X161.23Y-81.0
X162.54Y-131.5
X163.77Y-81.0
X189.5Y-108.5
X192.04Y-108.5
T4
X114.0Y-106.5
X120.35Y-103.96
X157.5Y-146.0
X158.5Y-62.5
X163.85Y-143.46
X164.85Y-59.96
X203.0Y-105.0
X209.35Y-102.46
M30
